<svg xmlns="http://www.w3.org/2000/svg" viewBox="0 0 1144 484" width="1144" height="484" shape-rendering="geometricPrecision"><rect width="100%" height="100%" fill="#ffffff"/><rect class="glyphnet-ribbon" x="55" y="46" width="11" height="7" rx="3.50" ry="3.50" fill="#000000"/><rect class="glyphnet-ribbon" x="99" y="46" width="33" height="7" rx="3.50" ry="3.50" fill="#000000"/><rect class="glyphnet-ribbon" x="143" y="46" width="11" height="7" rx="3.50" ry="3.50" fill="#000000"/><rect class="glyphnet-ribbon" x="176" y="46" width="22" height="7" rx="3.50" ry="3.50" fill="#000000"/><rect class="glyphnet-ribbon" x="231" y="46" width="11" height="7" rx="3.50" ry="3.50" fill="#000000"/><rect class="glyphnet-ribbon" x="253" y="46" width="22" height="7" rx="3.50" ry="3.50" fill="#000000"/><rect class="glyphnet-ribbon" x="297" y="46" width="11" height="7" rx="3.50" ry="3.50" fill="#000000"/><rect class="glyphnet-ribbon" x="319" y="46" width="11" height="7" rx="3.50" ry="3.50" fill="#000000"/><rect class="glyphnet-ribbon" x="352" y="46" width="33" height="7" rx="3.50" ry="3.50" fill="#000000"/><rect class="glyphnet-ribbon" x="473" y="46" width="11" height="7" rx="3.50" ry="3.50" fill="#000000"/><rect class="glyphnet-ribbon" x="638" y="46" width="11" height="7" rx="3.50" ry="3.50" fill="#000000"/><rect class="glyphnet-ribbon" x="1089" y="46" width="11" height="7" rx="3.50" ry="3.50" fill="#000000"/><rect class="glyphnet-ribbon" x="44" y="57" width="33" height="7" rx="3.50" ry="3.50" fill="#000000"/><rect class="glyphnet-ribbon" x="176" y="57" width="22" height="7" rx="3.50" ry="3.50" fill="#000000"/><rect class="glyphnet-ribbon" x="209" y="57" width="11" height="7" rx="3.50" ry="3.50" fill="#000000"/><rect class="glyphnet-ribbon" x="253" y="57" width="22" height="7" rx="3.50" ry="3.50" fill="#000000"/><rect class="glyphnet-ribbon" x="297" y="57" width="11" height="7" rx="3.50" ry="3.50" fill="#000000"/><rect class="glyphnet-ribbon" x="319" y="57" width="44" height="7" rx="3.50" ry="3.50" fill="#000000"/><rect class="glyphnet-ribbon" x="385" y="57" width="22" height="7" rx="3.50" ry="3.50" fill="#000000"/><rect class="glyphnet-ribbon" x="429" y="57" width="55" height="7" rx="3.50" ry="3.50" fill="#000000"/><rect class="glyphnet-ribbon" x="517" y="57" width="11" height="7" rx="3.50" ry="3.50" fill="#000000"/><rect class="glyphnet-ribbon" x="572" y="57" width="11" height="7" rx="3.50" ry="3.50" fill="#000000"/><rect class="glyphnet-ribbon" x="594" y="57" width="33" height="7" rx="3.50" ry="3.50" fill="#000000"/><rect class="glyphnet-ribbon" x="671" y="57" width="44" height="7" rx="3.50" ry="3.50" fill="#000000"/><rect class="glyphnet-ribbon" x="1034" y="57" width="11" height="7" rx="3.50" ry="3.50" fill="#000000"/><rect class="glyphnet-ribbon" x="1067" y="57" width="11" height="7" rx="3.50" ry="3.50" fill="#000000"/><rect class="glyphnet-ribbon" x="44" y="68" width="44" height="7" rx="3.50" ry="3.50" fill="#000000"/><rect class="glyphnet-ribbon" x="110" y="68" width="11" height="7" rx="3.50" ry="3.50" fill="#000000"/><rect class="glyphnet-ribbon" x="176" y="68" width="22" height="7" rx="3.50" ry="3.50" fill="#000000"/><rect class="glyphnet-ribbon" x="220" y="68" width="22" height="7" rx="3.50" ry="3.50" fill="#000000"/><rect class="glyphnet-ribbon" x="253" y="68" width="11" height="7" rx="3.50" ry="3.50" fill="#000000"/><rect class="glyphnet-ribbon" x="275" y="68" width="11" height="7" rx="3.50" ry="3.50" fill="#000000"/><rect class="glyphnet-ribbon" x="297" y="68" width="22" height="7" rx="3.50" ry="3.50" fill="#000000"/><rect class="glyphnet-ribbon" x="330" y="68" width="33" height="7" rx="3.50" ry="3.50" fill="#000000"/><rect class="glyphnet-ribbon" x="385" y="68" width="22" height="7" rx="3.50" ry="3.50" fill="#000000"/><rect class="glyphnet-ribbon" x="418" y="68" width="22" height="7" rx="3.50" ry="3.50" fill="#000000"/><rect class="glyphnet-ribbon" x="451" y="68" width="11" height="7" rx="3.50" ry="3.50" fill="#000000"/><rect class="glyphnet-ribbon" x="473" y="68" width="44" height="7" rx="3.50" ry="3.50" fill="#000000"/><rect class="glyphnet-ribbon" x="550" y="68" width="11" height="7" rx="3.50" ry="3.50" fill="#000000"/><rect class="glyphnet-ribbon" x="594" y="68" width="11" height="7" rx="3.50" ry="3.50" fill="#000000"/><rect class="glyphnet-ribbon" x="649" y="68" width="11" height="7" rx="3.50" ry="3.50" fill="#000000"/><rect class="glyphnet-ribbon" x="682" y="68" width="33" height="7" rx="3.50" ry="3.50" fill="#000000"/><rect class="glyphnet-ribbon" x="726" y="68" width="22" height="7" rx="3.50" ry="3.50" fill="#000000"/><rect class="glyphnet-ribbon" x="759" y="68" width="11" height="7" rx="3.50" ry="3.50" fill="#000000"/><rect class="glyphnet-ribbon" x="803" y="68" width="33" height="7" rx="3.50" ry="3.50" fill="#000000"/><rect class="glyphnet-ribbon" x="847" y="68" width="22" height="7" rx="3.50" ry="3.50" fill="#000000"/><rect class="glyphnet-ribbon" x="880" y="68" width="22" height="7" rx="3.50" ry="3.50" fill="#000000"/><rect class="glyphnet-ribbon" x="935" y="68" width="44" height="7" rx="3.50" ry="3.50" fill="#000000"/><rect class="glyphnet-ribbon" x="1001" y="68" width="11" height="7" rx="3.50" ry="3.50" fill="#000000"/><rect class="glyphnet-ribbon" x="1023" y="68" width="33" height="7" rx="3.50" ry="3.50" fill="#000000"/><rect class="glyphnet-ribbon" x="55" y="79" width="22" height="7" rx="3.50" ry="3.50" fill="#000000"/><rect class="glyphnet-ribbon" x="88" y="79" width="11" height="7" rx="3.50" ry="3.50" fill="#000000"/><rect class="glyphnet-stroke" x="99" y="79" width="11" height="7" rx="3.50" ry="3.50" fill="#000000"/><rect class="glyphnet-stroke" x="121" y="79" width="11" height="7" rx="3.50" ry="3.50" fill="#000000"/><rect class="glyphnet-ribbon" x="165" y="79" width="11" height="7" rx="3.50" ry="3.50" fill="#000000"/><polygon points="203,77 209,82 203,88 198,82" fill="#000000"/><polygon points="214,77 220,82 214,88 209,82" fill="#000000"/><polygon points="225,77 231,82 225,88 220,82" fill="#000000"/><polygon points="269,77 275,82 269,88 264,82" fill="#000000"/><polygon points="280,77 286,82 280,88 275,82" fill="#000000"/><polygon points="291,77 297,82 291,88 286,82" fill="#000000"/><polygon points="335,77 341,82 335,88 330,82" fill="#000000"/><polygon points="346,77 352,82 346,88 341,82" fill="#000000"/><polygon points="357,77 363,82 357,88 352,82" fill="#000000"/><polygon points="401,77 407,82 401,88 396,82" fill="#000000"/><polygon points="412,77 418,82 412,88 407,82" fill="#000000"/><polygon points="423,77 429,82 423,88 418,82" fill="#000000"/><polygon points="467,77 473,82 467,88 462,82" fill="#000000"/><polygon points="478,77 484,82 478,88 473,82" fill="#000000"/><polygon points="489,77 495,82 489,88 484,82" fill="#000000"/><polygon points="533,77 539,82 533,88 528,82" fill="#000000"/><polygon points="544,77 550,82 544,88 539,82" fill="#000000"/><polygon points="555,77 561,82 555,88 550,82" fill="#000000"/><polygon points="599,77 605,82 599,88 594,82" fill="#000000"/><polygon points="610,77 616,82 610,88 605,82" fill="#000000"/><polygon points="621,77 627,82 621,88 616,82" fill="#000000"/><polygon points="665,77 671,82 665,88 660,82" fill="#000000"/><polygon points="676,77 682,82 676,88 671,82" fill="#000000"/><polygon points="687,77 693,82 687,88 682,82" fill="#000000"/><polygon points="731,77 737,82 731,88 726,82" fill="#000000"/><polygon points="742,77 748,82 742,88 737,82" fill="#000000"/><polygon points="753,77 759,82 753,88 748,82" fill="#000000"/><polygon points="797,77 803,82 797,88 792,82" fill="#000000"/><polygon points="808,77 814,82 808,88 803,82" fill="#000000"/><polygon points="819,77 825,82 819,88 814,82" fill="#000000"/><polygon points="863,77 869,82 863,88 858,82" fill="#000000"/><polygon points="874,77 880,82 874,88 869,82" fill="#000000"/><polygon points="885,77 891,82 885,88 880,82" fill="#000000"/><polygon points="929,77 935,82 929,88 924,82" fill="#000000"/><polygon points="940,77 946,82 940,88 935,82" fill="#000000"/><rect class="glyphnet-ribbon" x="946" y="79" width="33" height="7" rx="3.50" ry="3.50" fill="#000000"/><rect class="glyphnet-ribbon" x="1001" y="79" width="11" height="7" rx="3.50" ry="3.50" fill="#000000"/><rect class="glyphnet-stroke" x="1012" y="79" width="11" height="7" rx="3.50" ry="3.50" fill="#000000"/><rect class="glyphnet-ribbon" x="1023" y="79" width="11" height="7" rx="3.50" ry="3.50" fill="#000000"/><rect class="glyphnet-stroke" x="1034" y="79" width="11" height="7" rx="3.50" ry="3.50" fill="#000000"/><rect class="glyphnet-ribbon" x="1067" y="79" width="11" height="7" rx="3.50" ry="3.50" fill="#000000"/><rect class="glyphnet-ribbon" x="1089" y="79" width="11" height="7" rx="3.50" ry="3.50" fill="#000000"/><rect class="glyphnet-ribbon" x="55" y="90" width="33" height="7" rx="3.50" ry="3.50" fill="#000000"/><rect class="glyphnet-stroke" x="99" y="90" width="11" height="7" rx="3.50" ry="3.50" fill="#000000"/><rect class="glyphnet-ribbon" x="110" y="90" width="11" height="7" rx="3.50" ry="3.50" fill="#000000"/><rect class="glyphnet-stroke" x="121" y="90" width="11" height="7" rx="3.50" ry="3.50" fill="#000000"/><rect class="glyphnet-ribbon" x="176" y="90" width="11" height="7" rx="3.50" ry="3.50" fill="#000000"/><rect class="glyphnet-ribbon" x="253" y="90" width="33" height="7" rx="3.50" ry="3.50" fill="#000000"/><rect class="glyphnet-ribbon" x="341" y="90" width="33" height="7" rx="3.50" ry="3.50" fill="#000000"/><rect class="glyphnet-ribbon" x="396" y="90" width="11" height="7" rx="3.50" ry="3.50" fill="#000000"/><rect class="glyphnet-ribbon" x="429" y="90" width="22" height="7" rx="3.50" ry="3.50" fill="#000000"/><rect class="glyphnet-ribbon" x="462" y="90" width="11" height="7" rx="3.50" ry="3.50" fill="#000000"/><rect class="glyphnet-ribbon" x="495" y="90" width="11" height="7" rx="3.50" ry="3.50" fill="#000000"/><rect class="glyphnet-ribbon" x="517" y="90" width="22" height="7" rx="3.50" ry="3.50" fill="#000000"/><rect class="glyphnet-ribbon" x="550" y="90" width="33" height="7" rx="3.50" ry="3.50" fill="#000000"/><rect class="glyphnet-ribbon" x="605" y="90" width="33" height="7" rx="3.50" ry="3.50" fill="#000000"/><rect class="glyphnet-ribbon" x="649" y="90" width="11" height="7" rx="3.50" ry="3.50" fill="#000000"/><rect class="glyphnet-ribbon" x="693" y="90" width="22" height="7" rx="3.50" ry="3.50" fill="#000000"/><rect class="glyphnet-ribbon" x="759" y="90" width="11" height="7" rx="3.50" ry="3.50" fill="#000000"/><rect class="glyphnet-ribbon" x="781" y="90" width="22" height="7" rx="3.50" ry="3.50" fill="#000000"/><rect class="glyphnet-ribbon" x="836" y="90" width="11" height="7" rx="3.50" ry="3.50" fill="#000000"/><rect class="glyphnet-ribbon" x="869" y="90" width="22" height="7" rx="3.50" ry="3.50" fill="#000000"/><rect class="glyphnet-ribbon" x="902" y="90" width="22" height="7" rx="3.50" ry="3.50" fill="#000000"/><rect class="glyphnet-ribbon" x="957" y="90" width="22" height="7" rx="3.50" ry="3.50" fill="#000000"/><rect class="glyphnet-ribbon" x="1001" y="90" width="11" height="7" rx="3.50" ry="3.50" fill="#000000"/><rect class="glyphnet-stroke" x="1012" y="90" width="11" height="7" rx="3.50" ry="3.50" fill="#000000"/><rect class="glyphnet-stroke" x="1034" y="90" width="11" height="7" rx="3.50" ry="3.50" fill="#000000"/><rect class="glyphnet-ribbon" x="1045" y="90" width="11" height="7" rx="3.50" ry="3.50" fill="#000000"/><rect class="glyphnet-ribbon" x="1078" y="90" width="11" height="7" rx="3.50" ry="3.50" fill="#000000"/><rect class="glyphnet-stroke" x="99" y="101" width="11" height="7" rx="3.50" ry="3.50" fill="#000000"/><rect class="glyphnet-ribbon" x="110" y="101" width="11" height="7" rx="3.50" ry="3.50" fill="#000000"/><rect class="glyphnet-ribbon" x="132" y="101" width="22" height="7" rx="3.50" ry="3.50" fill="#000000"/><rect class="glyphnet-ribbon" x="176" y="101" width="22" height="7" rx="3.50" ry="3.50" fill="#000000"/><polygon points="236,99 242,104 236,110 231,104" fill="#000000"/><polygon points="247,99 253,104 247,110 242,104" fill="#000000"/><polygon points="258,99 264,104 258,110 253,104" fill="#000000"/><polygon points="302,99 308,104 302,110 297,104" fill="#000000"/><polygon points="313,99 319,104 313,110 308,104" fill="#000000"/><polygon points="324,99 330,104 324,110 319,104" fill="#000000"/><polygon points="368,99 374,104 368,110 363,104" fill="#000000"/><polygon points="379,99 385,104 379,110 374,104" fill="#000000"/><polygon points="390,99 396,104 390,110 385,104" fill="#000000"/><polygon points="434,99 440,104 434,110 429,104" fill="#000000"/><polygon points="445,99 451,104 445,110 440,104" fill="#000000"/><polygon points="456,99 462,104 456,110 451,104" fill="#000000"/><polygon points="500,99 506,104 500,110 495,104" fill="#000000"/><polygon points="511,99 517,104 511,110 506,104" fill="#000000"/><polygon points="522,99 528,104 522,110 517,104" fill="#000000"/><polygon points="566,99 572,104 566,110 561,104" fill="#000000"/><polygon points="577,99 583,104 577,110 572,104" fill="#000000"/><polygon points="588,99 594,104 588,110 583,104" fill="#000000"/><polygon points="632,99 638,104 632,110 627,104" fill="#000000"/><polygon points="643,99 649,104 643,110 638,104" fill="#000000"/><polygon points="654,99 660,104 654,110 649,104" fill="#000000"/><polygon points="698,99 704,104 698,110 693,104" fill="#000000"/><polygon points="709,99 715,104 709,110 704,104" fill="#000000"/><polygon points="720,99 726,104 720,110 715,104" fill="#000000"/><polygon points="764,99 770,104 764,110 759,104" fill="#000000"/><polygon points="775,99 781,104 775,110 770,104" fill="#000000"/><polygon points="786,99 792,104 786,110 781,104" fill="#000000"/><polygon points="830,99 836,104 830,110 825,104" fill="#000000"/><polygon points="841,99 847,104 841,110 836,104" fill="#000000"/><polygon points="852,99 858,104 852,110 847,104" fill="#000000"/><polygon points="896,99 902,104 896,110 891,104" fill="#000000"/><polygon points="907,99 913,104 907,110 902,104" fill="#000000"/><polygon points="918,99 924,104 918,110 913,104" fill="#000000"/><rect class="glyphnet-ribbon" x="957" y="101" width="22" height="7" rx="3.50" ry="3.50" fill="#000000"/><rect class="glyphnet-ribbon" x="1045" y="101" width="11" height="7" rx="3.50" ry="3.50" fill="#000000"/><rect class="glyphnet-ribbon" x="1067" y="101" width="22" height="7" rx="3.50" ry="3.50" fill="#000000"/><rect class="glyphnet-ribbon" x="44" y="112" width="22" height="7" rx="3.50" ry="3.50" fill="#000000"/><rect class="glyphnet-ribbon" x="77" y="112" width="11" height="7" rx="3.50" ry="3.50" fill="#000000"/><rect class="glyphnet-ribbon" x="110" y="112" width="11" height="7" rx="3.50" ry="3.50" fill="#000000"/><rect class="glyphnet-ribbon" x="132" y="112" width="22" height="7" rx="3.50" ry="3.50" fill="#000000"/><rect class="glyphnet-ribbon" x="209" y="112" width="22" height="7" rx="3.50" ry="3.50" fill="#000000"/><rect class="glyphnet-ribbon" x="242" y="112" width="22" height="7" rx="3.50" ry="3.50" fill="#000000"/><rect class="glyphnet-ribbon" x="297" y="112" width="22" height="7" rx="3.50" ry="3.50" fill="#000000"/><rect class="glyphnet-ribbon" x="341" y="112" width="11" height="7" rx="3.50" ry="3.50" fill="#000000"/><rect class="glyphnet-ribbon" x="363" y="112" width="11" height="7" rx="3.50" ry="3.50" fill="#000000"/><rect class="glyphnet-ribbon" x="396" y="112" width="11" height="7" rx="3.50" ry="3.50" fill="#000000"/><rect class="glyphnet-ribbon" x="484" y="112" width="22" height="7" rx="3.50" ry="3.50" fill="#000000"/><rect class="glyphnet-ribbon" x="528" y="112" width="11" height="7" rx="3.50" ry="3.50" fill="#000000"/><rect class="glyphnet-ribbon" x="572" y="112" width="22" height="7" rx="3.50" ry="3.50" fill="#000000"/><rect class="glyphnet-ribbon" x="660" y="112" width="22" height="7" rx="3.50" ry="3.50" fill="#000000"/><rect class="glyphnet-ribbon" x="704" y="112" width="11" height="7" rx="3.50" ry="3.50" fill="#000000"/><rect class="glyphnet-ribbon" x="748" y="112" width="22" height="7" rx="3.50" ry="3.50" fill="#000000"/><rect class="glyphnet-ribbon" x="781" y="112" width="22" height="7" rx="3.50" ry="3.50" fill="#000000"/><rect class="glyphnet-ribbon" x="836" y="112" width="11" height="7" rx="3.50" ry="3.50" fill="#000000"/><rect class="glyphnet-ribbon" x="858" y="112" width="22" height="7" rx="3.50" ry="3.50" fill="#000000"/><rect class="glyphnet-ribbon" x="891" y="112" width="11" height="7" rx="3.50" ry="3.50" fill="#000000"/><rect class="glyphnet-ribbon" x="924" y="112" width="22" height="7" rx="3.50" ry="3.50" fill="#000000"/><rect class="glyphnet-ribbon" x="1023" y="112" width="11" height="7" rx="3.50" ry="3.50" fill="#000000"/><rect class="glyphnet-ribbon" x="1045" y="112" width="11" height="7" rx="3.50" ry="3.50" fill="#000000"/><rect class="glyphnet-ribbon" x="1067" y="112" width="11" height="7" rx="3.50" ry="3.50" fill="#000000"/><rect class="glyphnet-ribbon" x="1089" y="112" width="11" height="7" rx="3.50" ry="3.50" fill="#000000"/><rect class="glyphnet-ribbon" x="66" y="123" width="11" height="7" rx="3.50" ry="3.50" fill="#000000"/><rect class="glyphnet-ribbon" x="88" y="123" width="11" height="7" rx="3.50" ry="3.50" fill="#000000"/><rect class="glyphnet-stroke" x="99" y="123" width="11" height="7" rx="3.50" ry="3.50" fill="#000000"/><rect class="glyphnet-ribbon" x="110" y="123" width="11" height="7" rx="3.50" ry="3.50" fill="#000000"/><rect class="glyphnet-stroke" x="121" y="123" width="11" height="7" rx="3.50" ry="3.50" fill="#000000"/><rect class="glyphnet-ribbon" x="143" y="123" width="11" height="7" rx="3.50" ry="3.50" fill="#000000"/><rect class="glyphnet-ribbon" x="176" y="123" width="22" height="7" rx="3.50" ry="3.50" fill="#000000"/><rect class="glyphnet-ribbon" x="220" y="123" width="11" height="7" rx="3.50" ry="3.50" fill="#000000"/><rect class="glyphnet-ribbon" x="264" y="123" width="22" height="7" rx="3.50" ry="3.50" fill="#000000"/><rect class="glyphnet-ribbon" x="297" y="123" width="33" height="7" rx="3.50" ry="3.50" fill="#000000"/><rect class="glyphnet-ribbon" x="341" y="123" width="22" height="7" rx="3.50" ry="3.50" fill="#000000"/><rect class="glyphnet-ribbon" x="385" y="123" width="11" height="7" rx="3.50" ry="3.50" fill="#000000"/><rect class="glyphnet-ribbon" x="407" y="123" width="11" height="7" rx="3.50" ry="3.50" fill="#000000"/><rect class="glyphnet-ribbon" x="429" y="123" width="33" height="7" rx="3.50" ry="3.50" fill="#000000"/><rect class="glyphnet-ribbon" x="473" y="123" width="11" height="7" rx="3.50" ry="3.50" fill="#000000"/><rect class="glyphnet-ribbon" x="506" y="123" width="33" height="7" rx="3.50" ry="3.50" fill="#000000"/><rect class="glyphnet-ribbon" x="583" y="123" width="22" height="7" rx="3.50" ry="3.50" fill="#000000"/><rect class="glyphnet-ribbon" x="616" y="123" width="11" height="7" rx="3.50" ry="3.50" fill="#000000"/><rect class="glyphnet-ribbon" x="638" y="123" width="11" height="7" rx="3.50" ry="3.50" fill="#000000"/><rect class="glyphnet-ribbon" x="693" y="123" width="22" height="7" rx="3.50" ry="3.50" fill="#000000"/><rect class="glyphnet-ribbon" x="726" y="123" width="66" height="7" rx="3.50" ry="3.50" fill="#000000"/><rect class="glyphnet-ribbon" x="803" y="123" width="11" height="7" rx="3.50" ry="3.50" fill="#000000"/><rect class="glyphnet-ribbon" x="836" y="123" width="11" height="7" rx="3.50" ry="3.50" fill="#000000"/><rect class="glyphnet-ribbon" x="880" y="123" width="11" height="7" rx="3.50" ry="3.50" fill="#000000"/><rect class="glyphnet-ribbon" x="913" y="123" width="22" height="7" rx="3.50" ry="3.50" fill="#000000"/><rect class="glyphnet-ribbon" x="957" y="123" width="11" height="7" rx="3.50" ry="3.50" fill="#000000"/><rect class="glyphnet-ribbon" x="990" y="123" width="22" height="7" rx="3.50" ry="3.50" fill="#000000"/><rect class="glyphnet-stroke" x="1012" y="123" width="11" height="7" rx="3.50" ry="3.50" fill="#000000"/><rect class="glyphnet-ribbon" x="1023" y="123" width="11" height="7" rx="3.50" ry="3.50" fill="#000000"/><rect class="glyphnet-stroke" x="1034" y="123" width="11" height="7" rx="3.50" ry="3.50" fill="#000000"/><rect class="glyphnet-ribbon" x="1045" y="123" width="22" height="7" rx="3.50" ry="3.50" fill="#000000"/><rect class="glyphnet-ribbon" x="1089" y="123" width="11" height="7" rx="3.50" ry="3.50" fill="#000000"/><rect class="glyphnet-ribbon" x="44" y="134" width="11" height="7" rx="3.50" ry="3.50" fill="#000000"/><rect class="glyphnet-ribbon" x="77" y="134" width="22" height="7" rx="3.50" ry="3.50" fill="#000000"/><rect class="glyphnet-ribbon" x="110" y="134" width="11" height="7" rx="3.50" ry="3.50" fill="#000000"/><rect class="glyphnet-ribbon" x="154" y="134" width="11" height="7" rx="3.50" ry="3.50" fill="#000000"/><rect class="glyphnet-ribbon" x="176" y="134" width="22" height="7" rx="3.50" ry="3.50" fill="#000000"/><rect class="glyphnet-ribbon" x="242" y="134" width="11" height="7" rx="3.50" ry="3.50" fill="#000000"/><rect class="glyphnet-ribbon" x="297" y="134" width="33" height="7" rx="3.50" ry="3.50" fill="#000000"/><rect class="glyphnet-ribbon" x="363" y="134" width="44" height="7" rx="3.50" ry="3.50" fill="#000000"/><rect class="glyphnet-ribbon" x="440" y="134" width="11" height="7" rx="3.50" ry="3.50" fill="#000000"/><rect class="glyphnet-ribbon" x="473" y="134" width="22" height="7" rx="3.50" ry="3.50" fill="#000000"/><rect class="glyphnet-ribbon" x="528" y="134" width="55" height="7" rx="3.50" ry="3.50" fill="#000000"/><rect class="glyphnet-ribbon" x="605" y="134" width="11" height="7" rx="3.50" ry="3.50" fill="#000000"/><rect class="glyphnet-ribbon" x="649" y="134" width="11" height="7" rx="3.50" ry="3.50" fill="#000000"/><rect class="glyphnet-ribbon" x="682" y="134" width="44" height="7" rx="3.50" ry="3.50" fill="#000000"/><rect class="glyphnet-ribbon" x="759" y="134" width="22" height="7" rx="3.50" ry="3.50" fill="#000000"/><rect class="glyphnet-ribbon" x="792" y="134" width="22" height="7" rx="3.50" ry="3.50" fill="#000000"/><rect class="glyphnet-stroke" x="99" y="156" width="11" height="7" rx="3.50" ry="3.50" fill="#000000"/><rect class="glyphnet-stroke" x="121" y="156" width="11" height="7" rx="3.50" ry="3.50" fill="#000000"/><rect class="glyphnet-stroke" x="1012" y="156" width="11" height="7" rx="3.50" ry="3.50" fill="#000000"/><rect class="glyphnet-stroke" x="1034" y="156" width="11" height="7" rx="3.50" ry="3.50" fill="#000000"/><rect class="glyphnet-stroke" x="99" y="167" width="11" height="7" rx="3.50" ry="3.50" fill="#000000"/><rect class="glyphnet-stroke" x="121" y="167" width="11" height="7" rx="3.50" ry="3.50" fill="#000000"/><rect class="glyphnet-stroke" x="1012" y="167" width="11" height="7" rx="3.50" ry="3.50" fill="#000000"/><rect class="glyphnet-stroke" x="1034" y="167" width="11" height="7" rx="3.50" ry="3.50" fill="#000000"/><rect class="glyphnet-stroke" x="99" y="200" width="11" height="7" rx="3.50" ry="3.50" fill="#000000"/><rect class="glyphnet-stroke" x="121" y="200" width="11" height="7" rx="3.50" ry="3.50" fill="#000000"/><rect class="glyphnet-stroke" x="1012" y="200" width="11" height="7" rx="3.50" ry="3.50" fill="#000000"/><rect class="glyphnet-stroke" x="1034" y="200" width="11" height="7" rx="3.50" ry="3.50" fill="#000000"/><rect class="glyphnet-stroke" x="99" y="211" width="11" height="7" rx="3.50" ry="3.50" fill="#000000"/><rect class="glyphnet-stroke" x="99" y="233" width="11" height="7" rx="3.50" ry="3.50" fill="#000000"/><rect class="glyphnet-stroke" x="121" y="233" width="11" height="7" rx="3.50" ry="3.50" fill="#000000"/><polygon points="247,231 253,236 247,242 242,236" fill="#000000"/><polygon points="258,231 264,236 258,242 253,236" fill="#000000"/><polygon points="434,231 440,236 434,242 429,236" fill="#000000"/><polygon points="467,231 473,236 467,242 462,236" fill="#000000"/><polygon points="478,231 484,236 478,242 473,236" fill="#000000"/><polygon points="654,231 660,236 654,242 649,236" fill="#000000"/><polygon points="687,231 693,236 687,242 682,236" fill="#000000"/><polygon points="698,231 704,236 698,242 693,236" fill="#000000"/><polygon points="874,231 880,236 874,242 869,236" fill="#000000"/><polygon points="907,231 913,236 907,242 902,236" fill="#000000"/><polygon points="918,231 924,236 918,242 913,236" fill="#000000"/><rect class="glyphnet-stroke" x="1012" y="233" width="11" height="7" rx="3.50" ry="3.50" fill="#000000"/><rect class="glyphnet-stroke" x="1034" y="233" width="11" height="7" rx="3.50" ry="3.50" fill="#000000"/><rect class="glyphnet-stroke" x="99" y="244" width="11" height="7" rx="3.50" ry="3.50" fill="#000000"/><rect class="glyphnet-stroke" x="121" y="244" width="11" height="7" rx="3.50" ry="3.50" fill="#000000"/><polygon points="269,242 275,247 269,253 264,247" fill="#000000"/><polygon points="280,242 286,247 280,253 275,247" fill="#000000"/><polygon points="313,242 319,247 313,253 308,247" fill="#000000"/><polygon points="401,242 407,247 401,253 396,247" fill="#000000"/><polygon points="412,242 418,247 412,253 407,247" fill="#000000"/><polygon points="489,242 495,247 489,253 484,247" fill="#000000"/><polygon points="500,242 506,247 500,253 495,247" fill="#000000"/><polygon points="533,242 539,247 533,253 528,247" fill="#000000"/><polygon points="621,242 627,247 621,253 616,247" fill="#000000"/><polygon points="632,242 638,247 632,253 627,247" fill="#000000"/><polygon points="709,242 715,247 709,253 704,247" fill="#000000"/><polygon points="720,242 726,247 720,253 715,247" fill="#000000"/><polygon points="753,242 759,247 753,253 748,247" fill="#000000"/><polygon points="841,242 847,247 841,253 836,247" fill="#000000"/><polygon points="852,242 858,247 852,253 847,247" fill="#000000"/><rect class="glyphnet-stroke" x="1012" y="244" width="11" height="7" rx="3.50" ry="3.50" fill="#000000"/><rect class="glyphnet-stroke" x="1034" y="244" width="11" height="7" rx="3.50" ry="3.50" fill="#000000"/><polygon points="335,253 341,258 335,264 330,258" fill="#000000"/><polygon points="346,253 352,258 346,264 341,258" fill="#000000"/><polygon points="555,253 561,258 555,264 550,258" fill="#000000"/><polygon points="566,253 572,258 566,264 561,258" fill="#000000"/><polygon points="775,253 781,258 775,264 770,258" fill="#000000"/><polygon points="786,253 792,258 786,264 781,258" fill="#000000"/><rect class="glyphnet-stroke" x="99" y="266" width="11" height="7" rx="3.50" ry="3.50" fill="#000000"/><rect class="glyphnet-stroke" x="99" y="277" width="11" height="7" rx="3.50" ry="3.50" fill="#000000"/><rect class="glyphnet-stroke" x="121" y="277" width="11" height="7" rx="3.50" ry="3.50" fill="#000000"/><rect class="glyphnet-stroke" x="1012" y="277" width="11" height="7" rx="3.50" ry="3.50" fill="#000000"/><rect class="glyphnet-stroke" x="1034" y="277" width="11" height="7" rx="3.50" ry="3.50" fill="#000000"/><rect class="glyphnet-stroke" x="99" y="310" width="11" height="7" rx="3.50" ry="3.50" fill="#000000"/><rect class="glyphnet-stroke" x="121" y="310" width="11" height="7" rx="3.50" ry="3.50" fill="#000000"/><rect class="glyphnet-stroke" x="1012" y="310" width="11" height="7" rx="3.50" ry="3.50" fill="#000000"/><rect class="glyphnet-stroke" x="1034" y="310" width="11" height="7" rx="3.50" ry="3.50" fill="#000000"/><rect class="glyphnet-stroke" x="99" y="321" width="11" height="7" rx="3.50" ry="3.50" fill="#000000"/><rect class="glyphnet-stroke" x="121" y="321" width="11" height="7" rx="3.50" ry="3.50" fill="#000000"/><rect class="glyphnet-stroke" x="1012" y="321" width="11" height="7" rx="3.50" ry="3.50" fill="#000000"/><rect class="glyphnet-stroke" x="1034" y="321" width="11" height="7" rx="3.50" ry="3.50" fill="#000000"/><rect class="glyphnet-stroke" x="99" y="354" width="11" height="7" rx="3.50" ry="3.50" fill="#000000"/><rect class="glyphnet-stroke" x="121" y="354" width="11" height="7" rx="3.50" ry="3.50" fill="#000000"/><rect class="glyphnet-stroke" x="1012" y="354" width="11" height="7" rx="3.50" ry="3.50" fill="#000000"/><rect class="glyphnet-stroke" x="1034" y="354" width="11" height="7" rx="3.50" ry="3.50" fill="#000000"/><rect class="glyphnet-stroke" x="99" y="376" width="11" height="7" rx="3.50" ry="3.50" fill="#000000"/><polygon points="203,374 209,379 203,385 198,379" fill="#000000"/><polygon points="214,374 220,379 214,385 209,379" fill="#000000"/><polygon points="225,374 231,379 225,385 220,379" fill="#000000"/><polygon points="269,374 275,379 269,385 264,379" fill="#000000"/><polygon points="280,374 286,379 280,385 275,379" fill="#000000"/><polygon points="291,374 297,379 291,385 286,379" fill="#000000"/><polygon points="335,374 341,379 335,385 330,379" fill="#000000"/><polygon points="346,374 352,379 346,385 341,379" fill="#000000"/><polygon points="357,374 363,379 357,385 352,379" fill="#000000"/><polygon points="401,374 407,379 401,385 396,379" fill="#000000"/><polygon points="412,374 418,379 412,385 407,379" fill="#000000"/><polygon points="423,374 429,379 423,385 418,379" fill="#000000"/><polygon points="467,374 473,379 467,385 462,379" fill="#000000"/><polygon points="478,374 484,379 478,385 473,379" fill="#000000"/><polygon points="489,374 495,379 489,385 484,379" fill="#000000"/><polygon points="533,374 539,379 533,385 528,379" fill="#000000"/><polygon points="544,374 550,379 544,385 539,379" fill="#000000"/><polygon points="555,374 561,379 555,385 550,379" fill="#000000"/><polygon points="599,374 605,379 599,385 594,379" fill="#000000"/><polygon points="610,374 616,379 610,385 605,379" fill="#000000"/><polygon points="621,374 627,379 621,385 616,379" fill="#000000"/><polygon points="665,374 671,379 665,385 660,379" fill="#000000"/><polygon points="676,374 682,379 676,385 671,379" fill="#000000"/><polygon points="687,374 693,379 687,385 682,379" fill="#000000"/><polygon points="731,374 737,379 731,385 726,379" fill="#000000"/><polygon points="742,374 748,379 742,385 737,379" fill="#000000"/><polygon points="753,374 759,379 753,385 748,379" fill="#000000"/><polygon points="797,374 803,379 797,385 792,379" fill="#000000"/><polygon points="808,374 814,379 808,385 803,379" fill="#000000"/><polygon points="819,374 825,379 819,385 814,379" fill="#000000"/><polygon points="863,374 869,379 863,385 858,379" fill="#000000"/><polygon points="874,374 880,379 874,385 869,379" fill="#000000"/><polygon points="885,374 891,379 885,385 880,379" fill="#000000"/><polygon points="929,374 935,379 929,385 924,379" fill="#000000"/><polygon points="940,374 946,379 940,385 935,379" fill="#000000"/><rect class="glyphnet-stroke" x="99" y="387" width="11" height="7" rx="3.50" ry="3.50" fill="#000000"/><rect class="glyphnet-stroke" x="121" y="387" width="11" height="7" rx="3.50" ry="3.50" fill="#000000"/><rect class="glyphnet-stroke" x="1012" y="387" width="11" height="7" rx="3.50" ry="3.50" fill="#000000"/><rect class="glyphnet-stroke" x="1034" y="387" width="11" height="7" rx="3.50" ry="3.50" fill="#000000"/><rect class="glyphnet-stroke" x="99" y="398" width="11" height="7" rx="3.50" ry="3.50" fill="#000000"/><rect class="glyphnet-stroke" x="121" y="398" width="11" height="7" rx="3.50" ry="3.50" fill="#000000"/><polygon points="236,396 242,401 236,407 231,401" fill="#000000"/><polygon points="247,396 253,401 247,407 242,401" fill="#000000"/><polygon points="258,396 264,401 258,407 253,401" fill="#000000"/><polygon points="302,396 308,401 302,407 297,401" fill="#000000"/><polygon points="313,396 319,401 313,407 308,401" fill="#000000"/><polygon points="324,396 330,401 324,407 319,401" fill="#000000"/><polygon points="368,396 374,401 368,407 363,401" fill="#000000"/><polygon points="379,396 385,401 379,407 374,401" fill="#000000"/><polygon points="390,396 396,401 390,407 385,401" fill="#000000"/><polygon points="434,396 440,401 434,407 429,401" fill="#000000"/><polygon points="445,396 451,401 445,407 440,401" fill="#000000"/><polygon points="456,396 462,401 456,407 451,401" fill="#000000"/><polygon points="500,396 506,401 500,407 495,401" fill="#000000"/><polygon points="511,396 517,401 511,407 506,401" fill="#000000"/><polygon points="522,396 528,401 522,407 517,401" fill="#000000"/><polygon points="566,396 572,401 566,407 561,401" fill="#000000"/><polygon points="577,396 583,401 577,407 572,401" fill="#000000"/><polygon points="588,396 594,401 588,407 583,401" fill="#000000"/><polygon points="632,396 638,401 632,407 627,401" fill="#000000"/><polygon points="643,396 649,401 643,407 638,401" fill="#000000"/><polygon points="654,396 660,401 654,407 649,401" fill="#000000"/><polygon points="698,396 704,401 698,407 693,401" fill="#000000"/><polygon points="709,396 715,401 709,407 704,401" fill="#000000"/><polygon points="720,396 726,401 720,407 715,401" fill="#000000"/><polygon points="764,396 770,401 764,407 759,401" fill="#000000"/><polygon points="775,396 781,401 775,407 770,401" fill="#000000"/><polygon points="786,396 792,401 786,407 781,401" fill="#000000"/><polygon points="830,396 836,401 830,407 825,401" fill="#000000"/><polygon points="841,396 847,401 841,407 836,401" fill="#000000"/><polygon points="852,396 858,401 852,407 847,401" fill="#000000"/><polygon points="896,396 902,401 896,407 891,401" fill="#000000"/><polygon points="907,396 913,401 907,407 902,401" fill="#000000"/><polygon points="918,396 924,401 918,407 913,401" fill="#000000"/><rect class="glyphnet-stroke" x="1012" y="398" width="11" height="7" rx="3.50" ry="3.50" fill="#000000"/><rect class="glyphnet-stroke" x="1034" y="398" width="11" height="7" rx="3.50" ry="3.50" fill="#000000"/></svg>